<svg width="97" height="97" viewBox="0 0 97 97" fill="none" xmlns="http://www.w3.org/2000/svg">
<path d="M41.3988 6.63867C37.8004 6.63867 34.495 7.52465 32.0058 9.70153C29.4923 11.8996 28.0921 15.167 27.835 19.3455C27.6834 21.8093 28.3833 23.9014 29.7976 25.7188C29.9431 25.9059 30.2871 26.4818 30.7633 27.4312C31.2131 28.328 31.7181 29.43 32.1888 30.5616C32.6608 31.6963 33.0861 32.8311 33.3854 33.7979C33.7098 34.8457 33.8066 35.4529 33.8004 35.6507L33.7364 35.7128H49.2604C49.2604 33.8382 49.84 32.0471 50.6697 30.3079C51.0835 29.4404 51.5478 28.6093 52.0185 27.7955C52.1348 27.5943 52.2538 27.3905 52.3732 27.186C52.7206 26.5908 53.0714 25.9899 53.3686 25.4352L53.3707 25.4313C54.3472 23.5992 54.8646 21.5575 54.8783 19.4815V19.4683C54.8783 12.2118 48.421 6.63867 41.3988 6.63867Z" fill="#BDBDBD"/>
<path fill-rule="evenodd" clip-rule="evenodd" d="M59.5968 19.94C58.6088 19.4461 57.4075 19.8467 56.9136 20.8347C56.4197 21.8226 56.8202 23.024 57.8082 23.5179C60.3883 24.8077 62.7353 26.1402 64.45 28.5183C66.1372 30.8583 67.3859 34.4715 67.1295 40.6347C67.0882 41.5431 67.4021 42.432 68.0048 43.113L68.0114 43.1206L75.6889 51.6226L77.1825 50.2926L75.6982 51.633L75.6923 51.6266C75.8532 51.8091 75.942 52.0442 75.942 52.2876C75.942 52.5328 75.8519 52.7695 75.6888 52.9526L72.8308 56.2017L72.8247 56.2087C71.3413 57.9111 70.5128 60.0861 70.4877 62.3439L70.4877 62.3406L72.4875 62.3676L70.4877 62.3457L70.3825 70.1241V70.1376C70.3825 70.8007 70.1191 71.4365 69.6503 71.9054C69.1815 72.3742 68.5456 72.6376 67.8825 72.6376H64.7025C62.5808 72.6376 60.546 73.4805 59.0457 74.9808C57.5454 76.4811 56.7025 78.5159 56.7025 80.6376V86.4976H39.0275V67.215V67.2126H37.0275L39.0275 67.217L39.0275 67.215C39.0292 66.269 38.7625 65.3419 38.2583 64.5414C37.7551 63.7425 37.0361 63.1025 36.1844 62.6953C33.6252 61.4548 28.715 58.6709 25.1293 54.2524C21.6143 49.921 19.3698 44.0447 21.9044 36.2566C22.2395 35.2266 22.9141 33.9259 23.7863 32.6699C24.6604 31.4112 25.6397 30.332 26.5057 29.6739C27.3851 29.0055 27.5562 27.7508 26.8879 26.8714C26.2195 25.9919 24.9648 25.8208 24.0854 26.4892C22.7795 27.4817 21.5242 28.9147 20.5008 30.3883C19.4755 31.8648 18.5895 33.5169 18.1007 35.0187C15.0703 44.3306 17.8208 51.5943 22.0233 56.7729C26.1527 61.8614 31.6782 64.9568 34.4455 66.2975L34.4575 66.3033C34.6285 66.3847 34.7728 66.513 34.8737 66.6732C34.9746 66.8334 35.0279 67.0189 35.0275 67.2083L35.0275 86.9976C35.0275 87.9258 35.3963 88.8161 36.0527 89.4725C36.709 90.1288 37.5993 90.4976 38.5275 90.4976H57.2025C58.1308 90.4976 59.021 90.1288 59.6774 89.4725C60.3338 88.8161 60.7025 87.9258 60.7025 86.9976V80.6376C60.7025 79.5768 61.124 78.5593 61.8741 77.8092C62.6243 77.0591 63.6417 76.6376 64.7025 76.6376H67.8825C69.6064 76.6376 71.2597 75.9528 72.4787 74.7338C73.6942 73.5183 74.3786 71.8709 74.3825 70.1523L74.4874 62.3895C74.5017 61.0834 74.9804 59.825 75.8377 58.8396L75.8404 58.8365L78.6762 55.6126L78.6804 55.6079C79.4931 54.6929 79.942 53.5116 79.942 52.2876C79.942 51.0616 79.4916 49.8783 78.6763 48.9626L71.1336 40.6096C71.3822 33.9384 70.0285 29.4158 67.6945 26.1789C65.3648 22.9478 62.2293 21.256 59.5968 19.94ZM39.0275 86.4976V86.9976C39.0275 86.865 38.9748 86.7378 38.8811 86.644C38.7873 86.5503 38.6602 86.4976 38.5275 86.4976H39.0275ZM56.7025 86.4976H57.2025C57.0699 86.4976 56.9427 86.5503 56.849 86.644C56.7552 86.7378 56.7025 86.865 56.7025 86.9976V86.4976ZM67.1295 40.6347L67.1298 40.628L69.1275 40.7226L67.1293 40.6393L67.1295 40.6347Z" fill="#DC140A"/>
<path fill-rule="evenodd" clip-rule="evenodd" d="M31.2305 37.3773C31.2305 35.3715 32.8564 33.7456 34.8621 33.7456H47.8306C49.8363 33.7456 51.4623 35.3715 51.4623 37.3773V39.0829C51.4623 41.0886 49.8363 42.7146 47.8306 42.7146H47.2929V43.8342C47.2929 46.9148 44.4494 48.6842 41.3464 48.6842C39.6685 48.6842 38.1862 48.2861 37.0869 47.404C35.9471 46.4893 35.3999 45.1955 35.3999 43.8342V42.7146H34.8621C32.8564 42.7146 31.2305 41.0886 31.2305 39.0829V37.3773ZM34.8621 37.2456C34.7894 37.2456 34.7305 37.3045 34.7305 37.3773V39.0829C34.7305 39.1556 34.7894 39.2146 34.8621 39.2146H47.8306C47.9033 39.2146 47.9623 39.1556 47.9623 39.0829V37.3773C47.9623 37.3045 47.9033 37.2456 47.8306 37.2456H34.8621ZM38.8999 42.7146H43.7929V43.8342C43.7929 44.1022 43.6821 44.3834 43.3452 44.6434C42.988 44.9189 42.3395 45.1842 41.3464 45.1842C40.1815 45.1842 39.5655 44.9054 39.2773 44.6742C39.0296 44.4754 38.8999 44.2192 38.8999 43.8342V42.7146Z" fill="#DC140A"/>
</svg>
