<svg width="97" height="97" viewBox="0 0 97 97" fill="none" xmlns="http://www.w3.org/2000/svg">
<path d="M40.8799 24.209C41.9845 24.209 42.8799 25.1044 42.8799 26.209V27.3691H43.5199L43.5469 27.3693C47.6508 27.4248 50.8799 30.8458 50.8799 34.9691C50.8799 36.0737 49.9845 36.9691 48.8799 36.9691C47.7753 36.9691 46.8799 36.0737 46.8799 34.9691C46.8799 32.9369 45.3158 31.4002 43.5048 31.3691H37.5199C36.1615 31.3691 34.8799 32.5741 34.8799 34.2491C34.8799 35.4189 35.1332 35.9208 35.3302 36.1706C35.5474 36.4459 35.9296 36.7138 36.7442 37.0027L36.7476 37.0039L46.3406 40.3614L46.3602 40.3684C47.4445 40.7606 48.6473 41.3547 49.5406 42.4974C50.4531 43.6647 50.8399 45.1383 50.8399 46.8891C50.8399 50.5741 47.9615 53.7691 44.1999 53.7691H42.8799V54.9268C42.8799 56.0314 41.9845 56.9268 40.8799 56.9268C39.7753 56.9268 38.8799 56.0314 38.8799 54.9268V53.7691H38.1999C34.0813 53.7691 30.8799 50.2573 30.8799 46.1691C30.8799 45.0646 31.7753 44.1691 32.8799 44.1691C33.9845 44.1691 34.8799 45.0646 34.8799 46.1691C34.8799 48.241 36.4785 49.7691 38.1999 49.7691H44.1999C45.5582 49.7691 46.8399 48.5642 46.8399 46.8891C46.8399 45.7199 46.5867 45.2136 46.3892 44.9609C46.1733 44.6847 45.7982 44.4197 45.0088 44.1332L35.4192 40.7769L35.4122 40.7744C34.3091 40.3837 33.0921 39.792 32.1896 38.6477C31.2666 37.4775 30.8799 35.9994 30.8799 34.2491C30.8799 30.5642 33.7582 27.3691 37.5199 27.3691H38.8799V26.209C38.8799 25.1044 39.7753 24.209 40.8799 24.209Z" fill="#BDBDBD"/>
<path d="M81.6905 50.9454C80.7941 50.3 79.5443 50.5035 78.8988 51.3999C78.2534 52.2963 78.4569 53.5462 79.3533 54.1916C83.8569 57.4342 86.8019 62.7226 86.8019 68.6885C86.8019 78.5039 78.8174 86.4885 69.0019 86.4885C62.9627 86.4885 57.6777 83.5098 54.4337 78.9321C53.7951 78.0309 52.5467 77.8181 51.6455 78.4567C50.7443 79.0954 50.5315 80.3437 51.1701 81.2449C55.1261 86.8272 61.6012 90.4885 69.0019 90.4885C81.0265 90.4885 90.8019 80.7131 90.8019 68.6885C90.8019 61.3744 87.187 54.9029 81.6905 50.9454Z" fill="#BDBDBD"/>
<path fill-rule="evenodd" clip-rule="evenodd" d="M6.87988 40.5284C6.87988 21.7728 22.0843 6.56836 40.8399 6.56836C59.5957 6.56836 74.7999 21.7728 74.7999 40.5284C74.7999 59.2841 59.5956 74.4884 40.8399 74.4884C22.0843 74.4884 6.87988 59.2841 6.87988 40.5284ZM40.8399 10.5684C24.2934 10.5684 10.8799 23.9819 10.8799 40.5284C10.8799 57.075 24.2934 70.4884 40.8399 70.4884C57.3865 70.4884 70.7999 57.075 70.7999 40.5284C70.7999 23.9819 57.3865 10.5684 40.8399 10.5684Z" fill="#DC140A"/>
</svg>
