<svg width="128" height="129" viewBox="0 0 128 129" fill="none" xmlns="http://www.w3.org/2000/svg">
						<path d="M74.6667 11.1665H32C26.1333 11.1665 21.3333 15.9665 21.3333 21.8332V107.167C21.3333 113.033 26.1333 117.833 32 117.833H96C101.867 117.833 106.667 113.033 106.667 107.167V43.1665L74.6667 11.1665ZM64 53.8332C69.8667 53.8332 74.6667 58.6332 74.6667 64.4998C74.6667 70.3665 69.8667 75.1665 64 75.1665C58.1333 75.1665 53.3333 70.3665 53.3333 64.4998C53.3333 58.6332 58.1333 53.8332 64 53.8332ZM85.3333 96.4998H42.6667V93.4598C42.6667 89.1398 45.2267 85.2998 49.1733 83.5932C53.7067 81.6198 58.72 80.4998 64 80.4998C69.28 80.4998 74.2933 81.6198 78.8267 83.5932C82.7733 85.2998 85.3333 89.1398 85.3333 93.4598V96.4998Z" fill="#E0E0E0"/>
					</svg> 