<svg width="97" height="97" viewBox="0 0 97 97" fill="none" xmlns="http://www.w3.org/2000/svg">
<path d="M63.8599 40.9478C68.3997 40.9478 72.0799 37.2676 72.0799 32.7278C72.0799 28.188 68.3997 24.5078 63.8599 24.5078C59.3201 24.5078 55.6399 28.188 55.6399 32.7278C55.6399 37.2676 59.3201 40.9478 63.8599 40.9478Z" fill="#BDBDBD"/>
<path fill-rule="evenodd" clip-rule="evenodd" d="M87.5128 10.7712L85.535 11.0689C87.5128 10.7712 87.5132 10.7743 87.5132 10.7743L87.5138 10.7783L87.5153 10.7886L87.5196 10.8186C87.523 10.8429 87.5274 10.8755 87.5326 10.9164C87.543 10.998 87.5566 11.1125 87.5716 11.2583C87.6017 11.5499 87.6374 11.967 87.6646 12.4976C87.7188 13.5584 87.7386 15.0752 87.6085 16.9513C87.3484 20.7029 86.4882 25.9019 84.0984 31.7661C80.8162 39.8204 74.6915 49.0241 63.4669 57.4298L61.7803 65.4898C61.601 66.3223 61.2301 67.1016 60.6971 67.7659C60.164 68.4301 59.4835 68.9609 58.7095 69.3163L58.6903 69.3251L46.655 74.5455L46.6389 74.5521C46.2586 74.7092 45.8439 74.7643 45.4358 74.7116C45.0276 74.659 44.6404 74.5006 44.3125 74.2521C43.9845 74.0037 43.7272 73.6737 43.566 73.2952C43.4049 72.9166 43.3456 72.5024 43.3939 72.0938L43.3953 72.082L43.8451 68.6313L43.1193 68.9515L41.7274 67.5597C39.0807 71.7634 34.6359 73.9084 30.8886 75.0076C28.6111 75.6757 26.4742 75.9952 24.9126 76.1492C24.1288 76.2265 23.4824 76.2627 23.0262 76.2797C22.7979 76.2881 22.6167 76.2918 22.4892 76.2933C22.4254 76.294 22.3749 76.2942 22.3387 76.2942L22.295 76.2941L22.2813 76.294L22.2747 76.294C22.2747 76.294 22.2732 76.294 22.295 74.2941C20.296 74.2305 20.2961 74.2291 20.2961 74.2291L20.2963 74.2227L20.2968 74.2093L20.2985 74.1657C20.3 74.1293 20.3023 74.0784 20.3057 74.0137C20.3125 73.8845 20.3236 73.7004 20.3412 73.4683C20.3764 73.0045 20.4377 72.347 20.5432 71.5515C20.7535 69.9664 21.1428 67.8036 21.8634 65.5208C23.0203 61.8561 25.165 57.4795 29.164 54.9963L27.1068 52.939L23.5988 53.3878C23.1877 53.4403 22.7695 53.383 22.3878 53.2215C22.0062 53.0601 21.674 52.8004 21.4253 52.4688C21.1766 52.1372 21.0203 51.7456 20.9722 51.334C20.9241 50.9226 20.9858 50.5057 21.1512 50.1259L26.3424 38.198C26.6954 37.3904 27.2375 36.6795 27.923 36.1253C28.6068 35.5725 29.4133 35.1919 30.2747 35.0155L38.906 33.2062C39.8529 31.997 40.86 30.7752 41.9275 29.5566C51.4514 18.6851 66.0209 7.82423 85.6619 9.0729L87.2726 9.1753L87.5128 10.7712ZM44.0046 64.18L31.8606 52.036C31.9426 51.8631 32.0336 51.6734 32.1338 51.4676C32.6976 50.3097 33.5484 48.6482 34.6867 46.6575C36.966 42.6709 40.3832 37.3898 44.9363 32.1924C51.104 25.1519 59.248 18.3786 69.3916 15.0728C70.2846 17.8967 71.8472 20.4791 73.9637 22.5909C76.0805 24.7247 78.6801 26.2946 81.5253 27.179C81.1977 28.1772 80.8228 29.2049 80.3942 30.2566C76.0881 40.8231 66.2738 54.0356 44.0046 64.18ZM82.6059 23.3257C83.1992 20.7818 83.4898 18.5253 83.6181 16.6746C83.7243 15.1434 83.7192 13.892 83.6828 12.9886C80.0143 12.8978 76.5375 13.2698 73.2517 14.0104C73.9591 16.169 75.1677 18.1427 76.7922 19.7626L76.8003 19.7706C78.4286 21.413 80.4228 22.6283 82.6059 23.3257ZM32.1076 57.9399L38.7954 64.6276C36.9916 68.1504 33.4004 70.1022 29.7627 71.1693C27.7896 71.7481 25.9112 72.0314 24.5201 72.1685L24.4963 72.1708L24.5085 72.0773C24.6982 70.6474 25.0466 68.7245 25.6779 66.7249C26.8488 63.0156 28.8318 59.5201 32.1076 57.9399ZM29.0644 48.656C29.6197 47.5596 30.3361 46.2077 31.2142 44.672C32.3339 42.7137 33.7197 40.4507 35.3731 38.0337L31.0791 38.9338C30.8442 38.9816 30.6241 39.0853 30.4376 39.236C30.2514 39.3866 30.1041 39.5797 30.008 39.799L25.9816 49.0504L29.0644 48.656ZM48.1361 66.6577C52.0152 64.777 55.5195 62.7991 58.6845 60.7547L57.8689 64.6521C57.8201 64.8753 57.7203 65.0842 57.5773 65.2624C57.4369 65.4374 57.2585 65.5782 57.0557 65.6741L47.7375 69.7158L48.1361 66.6577Z" fill="#DC140A"/>
<path d="M22.295 74.2941L22.2732 76.294L20.2311 76.2717L20.296 74.2305L22.295 74.2941Z" fill="#DC140A"/>
<path d="M18.1161 81.2112C18.8962 80.4291 18.8945 79.1628 18.1124 78.3827C17.3303 77.6027 16.064 77.6044 15.284 78.3865L9.64397 84.0415C8.86396 84.8236 8.86564 86.0899 9.64772 86.8699C10.4298 87.6499 11.6961 87.6482 12.4761 86.8662L18.1161 81.2112Z" fill="#DC140A"/>
<path d="M17.6964 67.6017C18.4762 68.384 18.4743 69.6503 17.692 70.4301L12.907 75.2001C12.1247 75.9799 10.8584 75.9779 10.0786 75.1957C9.29874 74.4134 9.30073 73.1471 10.083 72.3672L14.868 67.5972C15.6503 66.8174 16.9166 66.8194 17.6964 67.6017Z" fill="#DC140A"/>
<path d="M28.7065 81.6459C29.4863 80.8636 29.4843 79.5973 28.702 78.8175C27.9197 78.0376 26.6534 78.0396 25.8736 78.8219L21.1036 83.6069C20.3238 84.3892 20.3258 85.6555 21.108 86.4353C21.8903 87.2151 23.1566 87.2132 23.9365 86.4309L28.7065 81.6459Z" fill="#DC140A"/>
</svg>
