<svg width="24" height="24" viewBox="0 0 24 24" fill="none" xmlns="http://www.w3.org/2000/svg">
<rect width="24" height="24" rx="4" fill="#BDBDBD"/>
<path d="M15.1334 9.64484C15.3189 9.2903 15.507 9.01555 15.6952 8.8143C15.8898 8.60684 16.0603 8.51207 16.2046 8.48642C16.2835 8.4724 16.3858 8.49197 16.5178 8.64439L16.5715 10.4288C16.4909 10.6234 16.3872 10.8612 16.2599 11.1425L16.2588 11.1452C16.1314 11.4361 15.985 11.7314 15.8194 12.0312C15.6541 12.3228 15.4818 12.5949 15.3025 12.8477C15.1284 13.0932 14.9679 13.2594 14.8238 13.36C14.6987 13.4403 14.6233 13.4344 14.5661 13.4088C14.5491 13.4012 14.5106 13.3751 14.4599 13.2949C14.4121 13.2194 14.3626 13.1101 14.3145 12.9603C14.2825 12.6791 14.2931 12.35 14.3505 11.9706C14.4175 11.5709 14.5181 11.1704 14.6524 10.7692C14.7869 10.3678 14.947 9.99377 15.1324 9.64672L15.1334 9.64484Z" fill="white"/>
<path fill-rule="evenodd" clip-rule="evenodd" d="M4.8 3H19.2C20.19 3 21 3.81 21 4.8V15.6C21 16.59 20.19 17.4 19.2 17.4H6.6L3 21V4.8C3 3.81 3.81 3 4.8 3ZM6.58429 14.2232C6.90618 14.4483 7.26275 14.5716 7.64935 14.5891L7.65493 14.5893C8.03136 14.5978 8.42133 14.5209 8.82269 14.366C9.21709 14.2138 9.60187 14.0141 9.97703 13.7678C10.3498 13.523 10.6989 13.2506 11.0243 12.9504C11.1626 12.8228 11.2926 12.697 11.4143 12.573C11.4152 12.6587 11.4167 12.7494 11.4186 12.8446C11.4264 13.2247 11.4459 13.616 11.477 14.0185C11.5081 14.4207 11.547 14.7896 11.5939 15.1248L11.5948 15.1303C11.6485 15.4584 11.7195 15.7293 11.8292 15.893L11.9343 16.05L12.746 15.7736L12.716 15.5718C12.6554 15.1644 12.6021 14.7065 12.5563 14.1979C12.5185 13.6928 12.5033 13.1838 12.5109 12.6709C12.5185 12.1611 12.5599 11.6712 12.6348 11.201C12.7041 10.767 12.8177 10.3916 12.9727 10.0719L13.0058 10.0503L13.1601 9.96273L13.1684 9.95761C13.2314 9.91841 13.2874 9.88262 13.336 9.85032L13.347 9.84306L13.3571 9.83468C13.383 9.81317 13.4075 9.79162 13.4284 9.77089C13.4434 9.75588 13.4774 9.72153 13.5004 9.67562L13.5037 9.66918L13.5065 9.66256C13.5459 9.57117 13.5831 9.45376 13.5635 9.33623C13.5525 9.27056 13.5232 9.20286 13.4673 9.14725C13.4135 9.09372 13.3496 9.06578 13.2918 9.05215C13.137 9.01424 12.9605 9.0395 12.7857 9.08922C12.6136 9.13814 12.4356 9.20263 12.2517 9.28203C12.1008 9.34069 11.9867 9.37893 11.9058 9.40004C11.5838 9.38564 11.2688 9.37843 10.9608 9.37843C10.6377 9.37843 10.3515 9.3979 10.1044 9.43864C9.86761 9.4715 9.64979 9.53776 9.50204 9.67256C9.39995 9.76571 9.34964 9.89234 9.36271 10.0311C9.37429 10.1541 9.43352 10.2668 9.50269 10.3632L9.57632 10.4658H11.4125C11.3008 10.6947 11.1515 10.9305 10.9624 11.1732L10.9605 11.1758C10.6865 11.537 10.3713 11.8731 10.0143 12.184C9.66485 12.4874 9.30179 12.7455 8.9252 12.9588C8.55211 13.1625 8.2151 13.2841 7.9127 13.3323C7.63128 13.371 7.41561 13.3235 7.24563 13.2116C7.10523 13.1125 6.98839 12.9012 6.95988 12.4896L6.9598 12.4885C6.92306 11.9912 6.95598 11.4644 7.06024 10.9084C7.1647 10.3439 7.32887 9.7902 7.55303 9.247C7.78488 8.70379 8.06893 8.19051 8.40528 7.70692C8.73976 7.22602 9.11342 6.81401 9.52579 6.46939C9.94286 6.12722 10.3904 5.87431 10.8687 5.70838L10.8718 5.70725C11.3401 5.53775 11.8343 5.48748 12.3583 5.55893L12.6379 5.59705V5.31616C12.6379 5.24303 12.6436 5.18462 12.6528 5.13896C12.6758 5.06882 12.6938 5.00264 12.7038 4.94294C12.7147 4.87788 12.7209 4.77345 12.6627 4.67663C12.592 4.55002 12.4649 4.51759 12.3798 4.51025C11.8786 4.34666 11.3822 4.30708 10.8946 4.39721C10.409 4.4794 9.94581 4.65549 9.50598 4.92294C9.076 5.18143 8.66989 5.51856 8.28726 5.93116C7.91549 6.3327 7.57593 6.77299 7.26847 7.25166L7.26694 7.2541C6.96774 7.73219 6.70422 8.2373 6.4763 8.76925L6.47561 8.7709C6.25595 9.29408 6.07897 9.81444 5.94506 10.3319L5.94443 10.3345C5.81837 10.8442 5.73889 11.3331 5.70704 11.8007L5.70683 11.8049C5.68272 12.2768 5.72202 12.7 5.83181 13.0699L5.83491 13.079C6.0055 13.5803 6.24708 13.9717 6.57805 14.2188L6.58429 14.2232ZM16.9306 12.9086V12.2783C16.7124 12.6917 16.4995 13.0419 16.2919 13.3274C15.9694 13.7737 15.6588 14.1118 15.3582 14.3255L15.3571 14.3263C15.0707 14.5275 14.776 14.6441 14.4821 14.6232L14.4734 14.6225C14.2127 14.5946 13.9806 14.5002 13.7863 14.3358L13.7765 14.327C13.6055 14.1657 13.4715 13.9738 13.3743 13.7539L13.3729 13.7507C13.2819 13.5366 13.2274 13.3259 13.216 13.1203C13.1594 12.8022 13.1578 12.4338 13.205 12.0196L13.2054 12.0156C13.2609 11.5894 13.3519 11.1528 13.478 10.7059L13.4791 10.7021C13.6132 10.2544 13.779 9.8184 13.9762 9.39424L13.9771 9.39246C14.1838 8.95718 14.4166 8.57658 14.6767 8.25293L14.679 8.25007C14.9485 7.92498 15.242 7.67551 15.5619 7.51152C15.8898 7.3358 16.2378 7.2981 16.5916 7.3997C16.741 7.38881 16.8823 7.39689 17.0082 7.43361C17.1655 7.46946 17.2994 7.55172 17.402 7.67653C17.5051 7.80204 17.5671 7.96247 17.6026 8.13844C17.6365 8.29935 17.6606 8.49914 17.6763 8.73429L17.677 8.74495L17.6768 8.75564C17.6616 9.49131 17.6807 10.1118 17.7331 10.619C17.7941 11.1346 17.8624 11.5874 17.9378 11.9779C18.0143 12.3736 18.0869 12.7309 18.1555 13.0498C18.2358 13.3863 18.2838 13.7339 18.2998 14.0923L18.3 14.1031C18.3 14.2656 18.2587 14.4263 18.1455 14.5531L18.1407 14.5585L18.1356 14.5636C18.0463 14.6525 17.9383 14.7158 17.8134 14.7431C17.6873 14.7782 17.5574 14.7719 17.4346 14.7176L17.4245 14.7128C17.3172 14.6594 17.2336 14.5703 17.1995 14.4505C17.0801 14.2557 17.01 14.0193 16.9785 13.7527L16.9778 13.7456C16.9542 13.4799 16.9386 13.2031 16.9307 12.9152L16.9306 12.9086Z" fill="white"/>
</svg>
