<svg width="97" height="97" viewBox="0 0 97 97" fill="none" xmlns="http://www.w3.org/2000/svg">
<path d="M56.3201 59.0872L66.9553 87.1251C67.6019 88.8298 70.0057 88.8511 70.6824 87.1581L72.0551 83.7239L75.0153 76.3179C75.2186 75.8093 75.6216 75.4064 76.1302 75.2031L86.9704 70.8701C88.6633 70.1935 88.6421 67.7896 86.9374 67.143L58.8995 56.5079C57.2873 55.8964 55.7086 57.475 56.3201 59.0872Z" fill="#BDBDBD"/>
<path fill-rule="evenodd" clip-rule="evenodd" d="M1.54663 47.5859C1.54663 24.39 20.3507 5.58594 43.5466 5.58594C66.7424 5.58594 85.5466 24.39 85.5466 47.5859C85.5466 48.2901 85.529 48.9899 85.4946 49.6848C85.44 50.7881 84.5013 51.6381 83.3981 51.5835C83.3556 51.5814 83.3134 51.578 83.2717 51.5733C83.2443 51.5762 83.2168 51.5786 83.1891 51.5805C68.8952 52.5334 60.1649 46.5483 57.6819 38.5656C55.2988 30.9041 59.0107 22.2678 67.6863 18.2371C61.1223 12.8319 52.7135 9.58594 43.5466 9.58594C39.9889 9.58594 36.5454 10.0749 33.2796 10.9892L45.8529 28.8862C46.7522 30.1662 46.8225 31.8527 46.0339 33.203L38.4552 46.178L38.5135 59.337C38.5247 61.8485 36.2459 63.7482 33.778 63.2866L18.7597 60.4758L11.127 64.882C10.7186 65.1178 10.2616 65.1931 9.82899 65.1277C16.167 77.2852 28.8874 85.5859 43.5466 85.5859C44.1848 85.5859 44.8187 85.5703 45.4477 85.5392C46.5509 85.4846 47.4896 86.3346 47.5442 87.4378C47.5988 88.541 46.7488 89.4797 45.6455 89.5343C44.9498 89.5687 44.25 89.5859 43.5466 89.5859C20.3507 89.5859 1.54663 70.7817 1.54663 47.5859ZM70.7503 21.0537C70.5558 21.2758 70.3089 21.458 70.0182 21.5796C62.5059 24.7211 59.7156 31.6364 61.5014 37.3776C63.1957 42.8246 69.3473 48.076 81.5466 47.659C81.5466 47.6346 81.5466 47.6103 81.5466 47.5859C81.5466 37.2633 77.4306 27.902 70.7503 21.0537ZM5.54663 47.5859C5.54663 31.5628 15.4637 17.856 29.4949 12.2685C29.5338 12.4616 29.6018 12.6512 29.7002 12.8308C29.7359 12.8959 29.7755 12.9598 29.8192 13.022L42.5798 31.1857L35.001 44.161C34.6404 44.7785 34.4519 45.4815 34.4551 46.1965L34.5133 59.3548L19.4956 56.5441C18.5561 56.368 17.5862 56.5349 16.7607 57.0109L9.12711 61.4178C8.82683 61.5912 8.58851 61.8307 8.41991 62.1072C6.56836 57.6334 5.54663 52.7289 5.54663 47.5859Z" fill="#DC140A"/>
</svg>
