<svg width="34" height="34" viewBox="0 0 34 34" fill="none" xmlns="http://www.w3.org/2000/svg">
<path fill-rule="evenodd" clip-rule="evenodd" d="M28.6306 6.69224H27.138C27.2133 6.48359 27.2613 6.25475 27.2613 6.01918C27.2613 4.9019 26.3438 4 25.2072 4C24.4883 4 23.8652 4.36345 23.4955 4.90863L23.1531 5.35958L22.8108 4.9019C22.4411 4.36345 21.818 4 21.0991 4C19.9625 4 19.045 4.9019 19.045 6.01918C19.045 6.25475 19.093 6.48359 19.1683 6.69224H17.6757C16.9157 6.69224 16.3131 7.29127 16.3131 8.03836L16.3063 15.442C16.3063 16.1891 16.9157 16.7882 17.6757 16.7882H28.6306C29.3906 16.7882 30 16.1891 30 15.442V8.03836C30 7.29127 29.3906 6.69224 28.6306 6.69224ZM25.2072 5.34612C25.5838 5.34612 25.8919 5.649 25.8919 6.01918C25.8919 6.38937 25.5838 6.69224 25.2072 6.69224C24.8306 6.69224 24.5225 6.38937 24.5225 6.01918C24.5225 5.649 24.8306 5.34612 25.2072 5.34612ZM21.0991 5.34612C21.4757 5.34612 21.7838 5.649 21.7838 6.01918C21.7838 6.38937 21.4757 6.69224 21.0991 6.69224C20.7225 6.69224 20.4144 6.38937 20.4144 6.01918C20.4144 5.649 20.7225 5.34612 21.0991 5.34612ZM17.6757 15.442V14.0959H28.6306V15.442H17.6757ZM17.6757 12.0767V8.03836H21.1539L19.7297 9.94313L20.8389 10.7306L22.4685 8.54989L23.1531 7.63453L23.8378 8.54989L25.4674 10.7306L26.5766 9.94313L25.1524 8.03836H28.6306V12.0767H17.6757ZM8.76303 17.1241H4V30H8.76303V17.1241ZM18.2891 24.1473H26.6244C27.9461 24.1473 29.0059 25.2008 29.0178 26.4884L19.4798 30L11.1445 27.6823V17.1241H13.4903L22.1352 20.2962C22.683 20.5069 23.0521 21.022 23.0521 21.5955C23.0521 22.3564 22.421 22.9768 21.647 22.9768H18.2891L16.1933 22.1925L15.8004 23.2928L18.2891 24.1473Z" fill="currentColor" stroke="currentColor"/>
</svg>
