<svg width="97" height="97" viewBox="0 0 97 97" fill="none" xmlns="http://www.w3.org/2000/svg">
<path d="M12.973 18.3496L2.66479 48.4067L14.9508 52.6202L25.259 22.5632L12.973 18.3496Z" fill="#BDBDBD"/>
<path d="M69.4483 24.2593L83.4133 52.7995L95.0791 47.0913L81.114 18.5511L69.4483 24.2593Z" fill="#BDBDBD"/>
<path d="M34.1841 20.8948L32.989 21.4826C31.5 22.2075 29.7564 22.3054 28.2087 21.7568L26.2104 21.0516C26.0928 20.9732 25.9753 20.9144 25.8577 20.8752L13.5543 16.6631C12.6335 16.3496 11.6147 16.8394 11.3013 17.7602L0.976593 47.8331C0.819862 48.2837 0.859045 48.7734 1.05496 49.1849C1.25087 49.5963 1.62311 49.9293 2.07371 50.0861L14.3575 54.2982C14.5535 54.357 14.7494 54.3962 14.9257 54.3962C15.6702 54.3962 16.3559 53.926 16.6106 53.2011L26.3475 24.8719L27.0136 25.107C29.4625 25.969 32.2053 25.8123 34.5563 24.676L35.7514 24.0882C37.2207 23.3633 38.9448 23.2654 40.4925 23.7944L63.0814 31.5722C62.8463 32.5125 62.3762 33.6293 61.5141 34.2366C60.5541 34.9027 59.124 34.9027 57.2432 34.2562L47.1732 30.8081C46.703 30.6514 46.1936 30.6905 45.7626 30.9256C45.3316 31.1607 45.0181 31.5722 44.881 32.0424C44.8614 32.1011 43.4704 37.3124 39.0232 39.7026C36.2216 41.2111 32.7343 41.2699 28.6397 39.8789C27.7189 39.5655 26.7001 40.0553 26.3867 40.976C26.0732 41.8968 26.563 42.9156 27.4838 43.2291C29.8348 44.0323 32.0486 44.4437 34.1057 44.4437C36.4959 44.4437 38.6901 43.9148 40.6884 42.8372C44.6655 40.7018 46.7226 36.9598 47.663 34.7264L56.0677 37.6063C59.0652 38.6447 61.5729 38.4879 63.5125 37.1361C66.6275 34.9811 66.7842 30.6122 66.8038 30.4163C66.8234 29.6326 66.3336 28.9469 65.6087 28.6922L41.6288 20.4246C39.2191 19.6018 36.4959 19.7781 34.1841 20.8948ZM13.8482 50.3603L4.91447 47.3041L14.0637 20.601L22.9974 23.6572L13.8482 50.3603Z" fill="#DC140A"/>
<path d="M81.2426 52.3782L77.0304 56.2573C73.2101 59.7642 68.9 62.7225 64.2372 64.9951L41.8834 75.9271C40.9038 76.4169 39.7088 76.0055 39.219 75.0063C38.7292 74.0267 39.1406 72.8317 40.1398 72.3419L40.4141 72.2047L52.6391 66.2293C53.5207 65.7983 53.893 64.7404 53.462 63.8588C53.0309 62.9772 51.973 62.6049 51.0914 63.0359L38.8663 69.0113L32.7146 72.0284C31.7351 72.5182 30.54 72.1068 30.0502 71.1076C29.8151 70.6374 29.7759 70.0889 29.9522 69.5991C30.1285 69.0897 30.4812 68.6979 30.9514 68.4628L48.8776 59.6858C49.7592 59.2548 50.1314 58.1968 49.7004 57.3152C49.2694 56.4336 48.2114 56.0614 47.3298 56.4924L34.0272 63.0163L33.5179 63.271L27.1702 66.3861C26.7001 66.6212 26.1515 66.6603 25.6617 66.484C25.1523 66.3077 24.7605 65.9551 24.5254 65.4849C24.0356 64.5053 24.447 63.3102 25.4462 62.8204L27.6404 61.7429L32.1269 59.5487L33.3807 58.9413L43.6858 53.8867C44.5674 53.4557 44.9397 52.3978 44.5087 51.5162C44.0777 50.6346 43.0197 50.2623 42.1381 50.6933L26.0927 58.5495C25.1131 59.0197 23.9181 58.6279 23.4283 57.6287C23.1932 57.1585 23.154 56.6099 23.3303 56.1202C23.5066 55.6108 23.8593 55.2189 24.3295 54.9838L32.8518 50.8109C33.7334 50.3799 34.1056 49.3219 33.6746 48.4403C33.2436 47.5587 32.1857 47.1865 31.304 47.6175L22.7818 51.7904C21.4495 52.437 20.4504 53.5733 19.9802 54.9643C19.51 56.3553 19.5884 57.8638 20.2349 59.196C20.6463 60.0188 21.234 60.7046 21.9393 61.2139C20.7051 62.84 20.3916 65.0734 21.3516 67.0326C21.9981 68.3648 23.1344 69.364 24.5254 69.8342C25.1131 70.0301 25.7009 70.128 26.2886 70.128C26.269 71.0097 26.4454 71.8913 26.8568 72.6945C27.8168 74.6537 29.7955 75.79 31.833 75.79C32.6558 75.79 33.4787 75.6136 34.2623 75.2218L35.5162 74.6145C35.575 75.2806 35.7513 75.9271 36.0452 76.554C37.0051 78.5132 38.9839 79.6495 41.0214 79.6495C41.8442 79.6495 42.6671 79.4731 43.4507 79.0813L65.8046 68.1493C70.7808 65.72 75.3652 62.5853 79.4402 58.8434L84.436 54.2394L95.8774 48.6362C96.759 48.2052 97.1313 47.1473 96.7003 46.2657L82.712 17.7601C82.4965 17.3291 82.1438 17.0156 81.6932 16.8589C81.2426 16.7022 80.7528 16.7414 80.3414 16.9373L68.6649 22.6384C67.7833 23.0694 67.4111 24.1273 67.8421 25.009L81.2426 52.3782ZM80.3022 20.9143L92.7036 46.2853L84.2205 50.4386L71.8191 25.0677L80.3022 20.9143Z" fill="#DC140A"/>
</svg>
