<svg width="24" height="24" viewBox="0 0 24 24" fill="none" xmlns="http://www.w3.org/2000/svg">
<rect width="24" height="24" rx="4" fill="#BDBDBD"/>
<path d="M3 8.00637H6.97452V21H3V8.00637ZM18.2484 8.80892C19.0382 9.24204 19.6879 9.89809 20.1975 10.7771C20.707 11.6561 20.9618 12.5541 20.9618 13.4713V21H16.949V13.4713C16.949 13.2675 16.8726 13.0382 16.7197 12.7834C16.5669 12.5287 16.4268 12.3631 16.2994 12.2866C16.0955 12.1592 15.8153 12.0955 15.4586 12.0955C14.5699 12.0955 13.5699 12.3747 12.9745 13.051V21H8.96178V8.00637H12.9745V8.61783C13.7643 8.26115 14.6561 8.09554 15.6497 8.12102C16.6433 8.1465 17.5096 8.3758 18.2484 8.80892ZM4.98726 3C5.54777 3 6.01911 3.19108 6.40127 3.57325C6.78344 3.95541 6.97452 4.42675 6.97452 4.98726C6.97452 5.54777 6.78344 6.02548 6.40127 6.42038C6.01911 6.81529 5.54777 7.01274 4.98726 7.01274C4.42675 7.01274 3.95541 6.81529 3.57325 6.42038C3.19108 6.02548 3 5.54777 3 4.98726C3 4.42675 3.19108 3.95541 3.57325 3.57325C3.95541 3.19108 4.42675 3 4.98726 3Z" fill="white"/>
</svg>
