<svg width="57" height="36" viewBox="0 0 57 36" fill="none" xmlns="http://www.w3.org/2000/svg">
<path fill-rule="evenodd" clip-rule="evenodd" d="M55.6598 34.0364H1.85648V1.50922H55.6598V34.0364ZM0.758301 35.1328H56.7583V0.412811H0.758301V35.1328ZM45.8307 11.3208H42.2459V23.9701H45.8307V11.3208ZM38.9502 11.3208V23.97H35.3653V19.0366H30.4782V23.97H26.8933V11.3208H30.4782V16.0733H35.3653V11.3208H38.9502ZM11.6857 11.3208V18.3316C11.6857 22.1084 13.8943 24.2248 17.6415 24.2248C21.389 24.2248 23.5976 22.1084 23.5976 18.3316V11.3208H20.0663V18.2231C20.0663 20.393 19.1615 21.2586 17.6778 21.2586C16.1739 21.2586 15.2705 20.393 15.2705 18.2231V11.3208H11.6857Z" fill="#DC140A"/>
</svg>
