<svg width="97" height="61" viewBox="0 0 97 61" fill="none" xmlns="http://www.w3.org/2000/svg">
<g id="Logo UHI_Wire">
<path id="vector" fill-rule="evenodd" clip-rule="evenodd" d="M94.1852 58.3433H1.95095V2.58246H94.1852V58.3433ZM0.0683594 60.2229H96.0684V0.7029H0.0683594V60.2229ZM77.3354 19.4024H71.1899V41.0868H77.3354V19.4024ZM65.5402 19.4022V41.0867H59.3947V32.6293H51.0167V41.0867H44.8713V19.4022H51.0167V27.5495H59.3947V19.4022H65.5402ZM18.801 19.4023V31.4208C18.801 37.8953 22.5872 41.5235 29.011 41.5235C35.4352 41.5235 39.2214 37.8953 39.2214 31.4208V19.4023H33.1679V31.2348C33.1679 34.9547 31.6167 36.4386 29.0732 36.4386C26.4952 36.4386 24.9465 34.9547 24.9465 31.2348V19.4023H18.801Z" fill="#DC140A"/>
</g>
</svg>
