<svg width="327" height="562" viewBox="0 0 327 562" fill="none" xmlns="http://www.w3.org/2000/svg">
<circle cx="57" cy="57" r="61" transform="matrix(-1 0 0 1 175.458 278.084)" fill="white" stroke="#BDBDBD" stroke-width="8"/>
<path d="M112.3 293.537C113.706 288.336 118.094 284.689 123.17 284.689C126.71 284.689 130.007 286.474 132.15 289.504C132.745 289.368 133.347 289.298 133.953 289.298C138.716 289.298 142.592 293.52 142.592 298.712C142.592 300.574 142.091 302.377 141.145 303.927C140.923 304.29 140.548 304.508 140.148 304.508H132.166C132.108 300.796 129.086 297.804 125.36 297.804C121.635 297.804 118.612 300.796 118.555 304.508H107.76C107.38 304.508 107.024 304.314 106.797 303.981C106.01 302.829 105.593 301.475 105.593 300.068C105.594 296.199 108.725 293.068 112.3 293.537Z" fill="#DC140A"/>
<path d="M129.695 307.22L125.722 312.773C125.65 312.873 125.533 312.934 125.41 312.934L125.409 312.934C125.285 312.934 125.169 312.873 125.097 312.772L121.149 307.22C121.066 307.103 121.056 306.95 121.121 306.821C121.187 306.693 121.319 306.614 121.463 306.614L123.32 306.614L123.32 301.626C123.32 301.413 123.492 301.242 123.704 301.242L127.141 301.242C127.353 301.242 127.525 301.413 127.525 301.626L127.525 306.614L129.383 306.614C129.526 306.614 129.658 306.695 129.724 306.821C129.79 306.95 129.779 307.103 129.695 307.22Z" fill="#DC140A"/>
<g clip-path="url(#clip0_6379_145667)">
<path d="M155.778 341.533L156.46 342.944L158.012 343.13L156.832 344.172L157.143 345.769L155.778 344.971L154.412 345.769L154.723 344.172L153.543 343.13L155.095 342.944L155.778 341.533ZM154.412 345.769H157.143H157.83C159.627 345.769 161.038 347.179 161.038 348.977V368.764C161.038 369.096 160.765 369.369 160.432 369.369H150.145V363.318H146.515V369.369H136.228C135.895 369.369 135.622 369.096 135.622 368.764V348.977C135.622 347.179 137.033 345.769 138.83 345.769H139.517H142.248H144.482H147.213H149.447H152.178H154.412ZM152.178 345.769L150.813 344.971L149.447 345.769L149.758 344.172L148.578 343.13L150.13 342.944L150.813 341.533L151.495 342.944L153.047 343.13L151.867 344.172L152.178 345.769ZM147.213 345.769L145.847 344.971L144.482 345.769L144.793 344.172L143.613 343.13L145.165 342.944L145.847 341.533L146.53 342.944L148.082 343.13L146.902 344.172L147.213 345.769ZM142.248 345.769L140.882 344.971L139.517 345.769L139.828 344.172L138.648 343.13L140.2 342.944L140.882 341.533L141.565 342.944L143.117 343.13L141.937 344.172L142.248 345.769ZM157.407 348.795H153.776V351.215H157.407V348.795ZM150.145 348.795H146.515V351.215H150.145V348.795ZM142.884 348.795H139.253V351.215H142.884V348.795ZM157.407 353.636H153.776V356.056H157.407V353.636ZM150.145 353.636H146.515V356.056H150.145V353.636ZM142.884 353.636H139.253V356.056H142.884V353.636ZM157.407 358.477H153.776V360.897H157.407V358.477ZM150.145 358.477H146.515V360.897H150.145V358.477ZM142.884 358.477H139.253V360.897H142.884V358.477ZM157.407 363.318H153.776V365.738H157.407V363.318ZM142.884 363.318H139.253V365.738H142.884V363.318Z" fill="#BDBDBD"/>
</g>
<g clip-path="url(#clip1_6379_145667)">
<path d="M95.2662 341.533L95.9482 342.944L97.5 343.13L96.3205 344.172L96.6313 345.769L95.2662 344.971L93.9 345.769L94.2108 344.172L93.0313 343.13L94.5831 342.944L95.2662 341.533ZM93.9 345.769H96.6313H97.318C99.1152 345.769 100.526 347.179 100.526 348.977V368.764C100.526 369.096 100.253 369.369 99.9205 369.369H89.6334V363.318H86.0027V369.369H75.7156C75.3828 369.369 75.1105 369.096 75.1105 368.764V348.977C75.1105 347.179 76.5209 345.769 78.3181 345.769H79.0048H81.7361H83.9699H86.7012H88.9349H91.6662H93.9ZM91.6662 345.769L90.3012 344.971L88.9349 345.769L89.2458 344.172L88.0662 343.13L89.618 342.944L90.3012 341.533L90.9831 342.944L92.5349 343.13L91.3554 344.172L91.6662 345.769ZM86.7012 345.769L85.3349 344.971L83.9699 345.769L84.2807 344.172L83.1012 343.13L84.653 342.944L85.3349 341.533L86.018 342.944L87.5699 343.13L86.3903 344.172L86.7012 345.769ZM81.7361 345.769L80.3699 344.971L79.0048 345.769L79.3156 344.172L78.1361 343.13L79.6879 342.944L80.3699 341.533L81.053 342.944L82.6048 343.13L81.4253 344.172L81.7361 345.769ZM96.8949 348.795H93.2641V351.215H96.8949V348.795ZM89.6334 348.795H86.0027V351.215H89.6334V348.795ZM82.372 348.795H78.7412V351.215H82.372V348.795ZM96.8949 353.636H93.2641V356.056H96.8949V353.636ZM89.6334 353.636H86.0027V356.056H89.6334V353.636ZM82.372 353.636H78.7412V356.056H82.372V353.636ZM96.8949 358.477H93.2641V360.897H96.8949V358.477ZM89.6334 358.477H86.0027V360.897H89.6334V358.477ZM82.372 358.477H78.7412V360.897H82.372V358.477ZM96.8949 363.318H93.2641V365.738H96.8949V363.318ZM82.372 363.318H78.7412V365.738H82.372V363.318Z" fill="#BDBDBD"/>
</g>
<g clip-path="url(#clip2_6379_145667)">
<path d="M125.522 322.084L126.204 323.495L127.756 323.681L126.576 324.723L126.887 326.32L125.522 325.522L124.156 326.32L124.467 324.723L123.287 323.681L124.839 323.495L125.522 322.084ZM124.156 326.32H126.887H127.574C129.371 326.32 130.781 327.73 130.781 329.527V349.314C130.781 349.647 130.509 349.92 130.176 349.92H119.889V343.868H116.259V349.92H105.971C105.639 349.92 105.366 349.647 105.366 349.314V329.527C105.366 327.73 106.777 326.32 108.574 326.32H109.261H111.992H114.226H116.957H119.191H121.922H124.156ZM121.922 326.32L120.557 325.522L119.191 326.32L119.502 324.723L118.322 323.681L119.874 323.495L120.557 322.084L121.239 323.495L122.791 323.681L121.611 324.723L121.922 326.32ZM116.957 326.32L115.591 325.522L114.226 326.32L114.537 324.723L113.357 323.681L114.909 323.495L115.591 322.084L116.274 323.495L117.826 323.681L116.646 324.723L116.957 326.32ZM111.992 326.32L110.626 325.522L109.261 326.32L109.571 324.723L108.392 323.681L109.944 323.495L110.626 322.084L111.309 323.495L112.861 323.681L111.681 324.723L111.992 326.32ZM127.151 329.345H123.52V331.766H127.151V329.345ZM119.889 329.345H116.259V331.766H119.889V329.345ZM112.628 329.345H108.997V331.766H112.628V329.345ZM127.151 334.186H123.52V336.607H127.151V334.186ZM119.889 334.186H116.259V336.607H119.889V334.186ZM112.628 334.186H108.997V336.607H112.628V334.186ZM127.151 339.027H123.52V341.448H127.151V339.027ZM119.889 339.027H116.259V341.448H119.889V339.027ZM112.628 339.027H108.997V341.448H112.628V339.027ZM127.151 343.868H123.52V346.289H127.151V343.868ZM112.628 343.868H108.997V346.289H112.628V343.868Z" fill="#BDBDBD"/>
</g>
<circle cx="62" cy="62" r="66" transform="matrix(-1 0 0 1 298.288 429.408)" fill="white" stroke="#BDBDBD" stroke-width="8"/>
<rect width="39.35" height="51.5169" rx="3.38927" transform="matrix(-1 0 0 1 283.245 453.451)" fill="#BDBDBD"/>
<rect width="30.2693" height="8.13425" transform="matrix(-1 0 0 1 278.705 457.521)" fill="white"/>
<rect width="30.2693" height="8.13425" transform="matrix(-1 0 0 1 278.705 468.365)" fill="white"/>
<ellipse cx="3.78366" cy="3.38927" rx="3.78366" ry="3.38927" transform="matrix(-1 0 0 1 267.354 483.955)" fill="white"/>
<ellipse cx="2.27019" cy="2.03356" rx="2.27019" ry="2.03356" transform="matrix(-1 0 0 1 265.84 494.123)" fill="white"/>
<rect width="20.9133" height="15.685" rx="2.34168" transform="matrix(-1 0 0 1 212.019 450.855)" fill="#BDBDBD"/>
<rect width="20.9133" height="15.685" rx="2.34168" transform="matrix(-1 0 0 1 212.019 477)" fill="#BDBDBD"/>
<rect width="20.9133" height="15.685" rx="2.34168" transform="matrix(-1 0 0 1 212.019 502.264)" fill="#BDBDBD"/>
<path d="M214.198 458.703H236.187V484.845M236.187 484.845H214.198M236.187 484.845V508.808H214.198M236.187 484.845H246.644" stroke="#BDBDBD" stroke-width="3.12224" stroke-dasharray="3.12 3.12"/>
<path d="M243.736 528.703C243.671 528.145 243.627 527.564 243.627 526.961C243.627 526.358 243.671 525.778 243.758 525.219L240.066 522.272C239.738 522.004 239.651 521.513 239.847 521.133L243.343 514.948C243.561 514.546 244.02 514.412 244.414 514.546L248.761 516.332C249.679 515.618 250.64 515.037 251.711 514.591L252.366 509.857C252.432 509.41 252.803 509.098 253.24 509.098H260.231C260.668 509.098 261.018 509.41 261.083 509.857L261.739 514.591C262.809 515.037 263.792 515.64 264.688 516.332L269.036 514.546C269.429 514.39 269.888 514.546 270.106 514.948L273.602 521.133C273.82 521.535 273.733 522.004 273.383 522.272L269.691 525.219C269.778 525.778 269.844 526.381 269.844 526.961C269.844 527.542 269.8 528.145 269.713 528.703L273.405 531.65C273.733 531.918 273.82 532.409 273.624 532.789L270.128 538.974C269.909 539.376 269.451 539.51 269.057 539.376L264.71 537.59C263.792 538.304 262.831 538.885 261.76 539.332L261.105 544.065C261.018 544.512 260.668 544.825 260.231 544.825H253.24C252.803 544.825 252.432 544.512 252.388 544.065L251.732 539.332C250.662 538.885 249.679 538.282 248.783 537.59L244.435 539.376C244.042 539.533 243.583 539.376 243.365 538.974L239.869 532.789C239.651 532.387 239.738 531.918 240.088 531.65L243.736 528.703ZM256.735 533.66C260.34 533.66 263.29 530.645 263.29 526.961C263.29 523.277 260.34 520.262 256.735 520.262C253.131 520.262 250.181 523.277 250.181 526.961C250.181 530.645 253.131 533.66 256.735 533.66Z" fill="#DC140A"/>
<path d="M266.362 17.5586L266.362 311.493L266.362 419.588" stroke="#DC140A" stroke-width="3.12224" stroke-dasharray="3.12 9.37"/>
<circle cx="8" cy="8" r="8" transform="matrix(-1 0 0 1 273.152 415.441)" fill="#DC140A"/>
<circle cx="53.29" cy="53.29" r="57.29" transform="matrix(-1 0 0 1 115.212 120.564)" fill="white" stroke="#BDBDBD" stroke-width="8"/>
<path d="M81.7976 179.642H34.7275C32.9306 179.642 31.4725 178.183 31.4725 176.386V147.542C31.4725 145.743 32.9306 144.287 34.7275 144.287H81.7976C83.5945 144.287 85.0526 145.743 85.0526 147.542V176.386C85.0533 178.183 83.5952 179.642 81.7976 179.642ZM78.5426 150.797H37.9825V173.131H78.5426V150.797Z" fill="#BDBDBD"/>
<path d="M28.6147 182.904H87.9127C88.7415 182.904 89.4133 183.576 89.4133 184.405V188.039C89.4133 188.418 89.2707 188.781 89.0149 189.058L86.8889 191.36C86.6057 191.665 86.2054 191.841 85.7874 191.841H30.895C30.4947 191.841 30.1114 191.68 29.8281 191.395L27.5484 189.093C27.2711 188.812 27.1141 188.432 27.1141 188.038V184.405C27.1141 183.577 27.7866 182.904 28.6147 182.904ZM52.5929 188.117C52.5929 188.3 52.7139 188.449 52.8644 188.449H63.663C63.8134 188.449 63.9344 188.3 63.9344 188.117V186.636C63.9344 186.453 63.8134 186.306 63.663 186.306H52.8644C52.7139 186.306 52.5929 186.453 52.5929 186.636V188.117Z" fill="#BDBDBD"/>
<rect width="31.787" height="22.4379" transform="matrix(-1 0 0 1 98.1475 178.529)" fill="white"/>
<path d="M66.3609 179.658C66.3609 179.035 66.8733 178.53 67.5053 178.53C67.5208 178.53 67.5354 178.534 67.5509 178.535H96.9037C96.9372 178.532 96.9695 178.525 97.0039 178.525C97.6351 178.525 98.1475 179.03 98.1475 179.653C98.1475 179.706 98.1389 179.756 98.1315 179.807V182.781H66.3609V179.708H66.3656C66.3652 179.691 66.3609 179.675 66.3609 179.658Z" fill="#DC140A"/>
<path d="M98.1315 199.83C98.131 199.831 98.1315 199.832 98.1315 199.834C98.1315 200.457 97.6191 200.961 96.9875 200.961C96.9634 200.961 96.9406 200.956 96.9169 200.954V200.955H67.4639V200.947C66.8535 200.925 66.3651 200.435 66.3613 199.83H66.3604V187.02H98.1315V199.83Z" fill="#DC140A"/>
<circle cx="8" cy="8" r="8" transform="matrix(-1 0 0 1 160.38 276.109)" fill="#DC140A"/>
<path d="M213.106 39.0156V178.317C213.106 206.843 201.864 234.22 181.816 254.513L154.576 282.087" stroke="#DC140A" stroke-width="3.12224" stroke-dasharray="3.12 9.37"/>
<ellipse cx="6.78925" cy="6.79" rx="6.78925" ry="6.79" transform="matrix(-1 0 0 1 115.791 124.01)" fill="#DC140A"/>
<path d="M142.798 42.1445L142.798 65.7585C142.798 90.5633 130.108 113.644 109.163 126.933V126.933" stroke="#DC140A" stroke-width="3.12224" stroke-dasharray="3.12 9.37"/>
<circle cx="16.1245" cy="16.1245" r="11.6245" transform="matrix(-1 0 0 1 158.923 14.0195)" fill="white" stroke="#BDBDBD" stroke-width="9"/>
<circle cx="16.1245" cy="16.1245" r="11.6245" transform="matrix(-1 0 0 1 226.004 26.8906)" fill="white" stroke="#BDBDBD" stroke-width="9"/>
<circle cx="16.1245" cy="16.1245" r="11.6245" transform="matrix(-1 0 0 1 282.116 0.0429688)" fill="white" stroke="#BDBDBD" stroke-width="9"/>
<defs>
<clipPath id="clip0_6379_145667">
<rect width="30.256" height="30.256" fill="white" transform="matrix(-1 0 0 1 163.458 341.533)"/>
</clipPath>
<clipPath id="clip1_6379_145667">
<rect width="30.256" height="30.256" fill="white" transform="matrix(-1 0 0 1 102.946 341.533)"/>
</clipPath>
<clipPath id="clip2_6379_145667">
<rect width="30.256" height="30.256" fill="white" transform="matrix(-1 0 0 1 133.202 322.084)"/>
</clipPath>
</defs>
</svg>
