<svg width="40" height="27" viewBox="0 0 40 27" fill="none" xmlns="http://www.w3.org/2000/svg">
<g id="Tile">
<path id="Subtract" d="M32.0795 18.9629C31.968 19.3522 31.9037 19.7639 31.9037 20.1959V20.4629H28.2229H26.7229H11.8112H8.10026V20.1959C8.10026 19.7639 8.03594 19.3522 7.92446 18.9629M32.0795 18.9629H33.4037V20.1959C33.4037 17.8452 36.3633 15.8471 38.3176 14.7839C38.2962 14.7722 38.2745 14.7603 38.2527 14.7482C37.8495 14.5259 37.3591 14.2411 36.8333 13.9033M32.0795 18.9629H26.7229C25.8945 18.9629 25.2229 19.6345 25.2229 20.4629C25.2229 23.1806 22.9366 25.4629 20.017 25.4629C17.0975 25.4629 14.8112 23.1806 14.8112 20.4629C14.8112 19.6345 14.1396 18.9629 13.3112 18.9629H7.92446M32.0795 18.9629C32.3186 18.128 32.7744 17.3959 33.2778 16.7864C34.0217 15.8855 34.9732 15.124 35.8593 14.5224C36.1889 14.2986 36.5172 14.0918 36.8333 13.9033M36.8333 13.9033C37.3757 13.5799 37.882 13.3105 38.2968 13.1025C38.3145 13.0936 38.3321 13.0848 38.3495 13.0762C36.4074 11.9269 33.4399 9.79231 33.4044 7.46289M36.8333 13.9033C36.5119 13.6968 36.1772 13.4705 35.841 13.2265C34.9632 12.5895 34.0245 11.7959 33.2884 10.8807C32.8456 10.3302 32.4359 9.68525 32.1789 8.96289M33.4044 7.46289H28.2229H26.7229C26.7229 3.87304 23.7206 0.962891 20.017 0.962891C16.3135 0.962891 13.3112 3.87304 13.3112 7.46289H11.8112H6.59975M33.4044 7.46289V8.96289H32.1789M33.4044 7.46289L31.9046 7.4857C31.9125 8.00679 32.0144 8.50068 32.1789 8.96289M6.59975 7.46289C6.56427 9.79309 3.59503 11.9273 1.65177 13.0763C1.66879 13.0848 1.68597 13.0934 1.7033 13.1021C2.1186 13.3102 2.62562 13.5796 3.16878 13.9033M6.59975 7.46289L8.09958 7.48573C8.09164 8.00682 7.98976 8.5007 7.82531 8.96289M6.59975 7.46289V8.96289H7.82531M3.16878 13.9033C2.64219 14.2414 2.15116 14.5263 1.74747 14.7487C1.72596 14.7605 1.70468 14.7722 1.68364 14.7837C3.63915 15.8467 6.60026 17.8445 6.60026 20.1959V18.9629H7.92446M3.16878 13.9033C3.49008 13.697 3.82462 13.471 4.16063 13.2273C5.03898 12.5904 5.97823 11.7969 6.71484 10.8816C7.158 10.3309 7.56816 9.68564 7.82531 8.96289M3.16878 13.9033C3.48469 14.0915 3.81282 14.2981 4.14225 14.5216C5.02889 15.1231 5.98097 15.8846 6.72533 16.7855C7.2291 17.3952 7.6853 18.1276 7.92446 18.9629M32.1789 8.96289H26.7229C25.8945 8.96289 25.2229 8.29132 25.2229 7.46289C25.2229 4.74521 22.9366 2.46289 20.017 2.46289C17.0975 2.46289 14.8112 4.74521 14.8112 7.46289C14.8112 8.29132 14.1396 8.96289 13.3112 8.96289H7.82531" stroke="#EEEEEE" stroke-width="3" stroke-linejoin="round"/>
</g>
</svg>
