<svg width="200" height="124" viewBox="0 0 200 124" fill="none" xmlns="http://www.w3.org/2000/svg">
<path fill-rule="evenodd" clip-rule="evenodd" d="M196.077 120.084H3.92207V3.91575H196.077V120.084ZM0 124H200V0H0V124ZM160.973 38.9572H148.17V84.1332H160.973V38.9572ZM136.4 38.957V84.1329H123.597V66.5134H106.142V84.1329H93.3394V38.957H106.142V55.9304H123.597V38.957H136.4ZM39.0264 38.9571V63.9957C39.0264 77.4841 46.9143 85.0428 60.2973 85.0428C73.6809 85.0428 81.5688 77.4841 81.5688 63.9957V38.9571H68.9573V63.608C68.9573 71.3579 65.7256 74.4494 60.4267 74.4494C55.0559 74.4494 51.8294 71.3579 51.8294 63.608V38.9571H39.0264Z" fill="#DC140A"/>
</svg>
