<svg width="46" height="45" viewBox="0 0 46 45" fill="none" xmlns="http://www.w3.org/2000/svg">
<path d="M45.0601 42.572C45.0601 43.5455 44.2557 44.332 43.2601 44.332H1.86006C0.864433 44.332 0.0600586 43.5455 0.0600586 42.572V19.472H45.0601V42.572ZM1.86006 4.29203H11.3101V0.772031C11.3101 0.530031 11.5126 0.332031 11.7601 0.332031H14.9101C15.1576 0.332031 15.3601 0.530031 15.3601 0.772031V4.29203H29.7601V0.772031C29.7601 0.530031 29.9626 0.332031 30.2101 0.332031H33.3601C33.6076 0.332031 33.8101 0.530031 33.8101 0.772031V4.29203H43.2601C44.2557 4.29203 45.0601 5.07853 45.0601 6.05203V15.732H0.0600586V6.05203C0.0600586 5.07853 0.864433 4.29203 1.86006 4.29203Z" fill="#757575"/>
</svg>
