<svg width="48" height="38" viewBox="0 0 48 38" fill="none" xmlns="http://www.w3.org/2000/svg">
<path fill-rule="evenodd" clip-rule="evenodd" d="M7.94693 5.10063C8.51358 3.7225 9.45591 2.54818 10.657 1.72338C11.858 0.898576 13.265 0.459607 14.7032 0.460941H33.3915C36.329 0.460941 38.9845 2.28619 40.1419 5.10063L42.4684 10.7601C42.6887 11.2961 43.0853 11.7371 43.5847 11.9974C45.0534 12.763 46.0962 14.1871 46.4194 15.8623L47.4034 21.0042C47.5004 21.4973 47.5474 21.9995 47.5474 22.5048V23.7696C47.5474 26.2625 46.4017 28.4951 44.6099 29.8854V35.6797C44.6099 36.0858 44.4551 36.4753 44.1797 36.7624C43.9042 37.0496 43.5307 37.2109 43.1411 37.2109H37.2661C36.8766 37.2109 36.503 37.0496 36.2276 36.7624C35.9521 36.4753 35.7974 36.0858 35.7974 35.6797V31.5821C32.0021 31.7291 27.7339 31.8516 24.0474 31.8516C20.3608 31.8516 16.0926 31.7291 12.2974 31.5821V35.6797C12.2974 36.0858 12.1426 36.4753 11.8672 36.7624C11.5917 37.0496 11.2182 37.2109 10.8286 37.2109H4.95361C4.56408 37.2109 4.19049 37.0496 3.91505 36.7624C3.63961 36.4753 3.48486 36.0858 3.48486 35.6797V29.8854C1.69299 28.4951 0.547363 26.2625 0.547363 23.7696V22.5048C0.547856 22.0009 0.596069 21.4982 0.691301 21.0042L1.67536 15.8592C1.99849 14.1871 3.0413 12.7599 4.50711 11.9974C5.00882 11.736 5.40538 11.2976 5.6263 10.7601L7.9528 5.10063H7.94693ZM9.35693 24.9609C10.136 24.9609 10.8832 24.6383 11.4341 24.064C11.9849 23.4896 12.2944 22.7107 12.2944 21.8984C12.2944 21.0862 11.9849 20.3073 11.4341 19.7329C10.8832 19.1586 10.136 18.8359 9.35693 18.8359C8.57785 18.8359 7.83069 19.1586 7.2798 19.7329C6.72891 20.3073 6.41943 21.0862 6.41943 21.8984C6.41943 22.7107 6.72891 23.4896 7.2798 24.064C7.83069 24.6383 8.57785 24.9609 9.35693 24.9609ZM38.7319 24.9609C39.511 24.9609 40.2582 24.6383 40.8091 24.064C41.3599 23.4896 41.6694 22.7107 41.6694 21.8984C41.6694 21.0862 41.3599 20.3073 40.8091 19.7329C40.2582 19.1586 39.511 18.8359 38.7319 18.8359C37.9529 18.8359 37.2057 19.1586 36.6548 19.7329C36.1039 20.3073 35.7944 21.0862 35.7944 21.8984C35.7944 22.7107 36.1039 23.4896 36.6548 24.064C37.2057 24.6383 37.9529 24.9609 38.7319 24.9609ZM18.1694 18.8359C17.3904 18.8359 16.6432 19.1586 16.0923 19.7329C15.5414 20.3073 15.2319 21.0862 15.2319 21.8984C15.2319 22.7107 15.5414 23.4896 16.0923 24.064C16.6432 24.6383 17.3904 24.9609 18.1694 24.9609H29.9194C30.6985 24.9609 31.4457 24.6383 31.9965 24.064C32.5474 23.4896 32.8569 22.7107 32.8569 21.8984C32.8569 21.0862 32.5474 20.3073 31.9965 19.7329C31.4457 19.1586 30.6985 18.8359 29.9194 18.8359H18.1694ZM9.0808 10.2273L11.8891 4.36869C12.0111 4.11467 12.1986 3.90107 12.4305 3.75179C12.6624 3.60252 12.9296 3.52345 13.2021 3.52344H34.8867C35.1593 3.52345 35.4264 3.60252 35.6583 3.75179C35.8902 3.90107 36.0777 4.11467 36.1998 4.36869L39.008 10.2273C39.1229 10.4743 39.1732 10.7484 39.154 11.0222C39.1349 11.2959 39.0468 11.5596 38.8988 11.7866C38.7508 12.0136 38.548 12.1959 38.3109 12.3151C38.0737 12.4344 37.8107 12.4864 37.5481 12.4659C34.875 12.2424 27.7075 11.9453 24.0444 11.9453C20.3814 11.9453 13.2109 12.2424 10.5407 12.4659C10.2782 12.4864 10.0151 12.4344 9.77799 12.3151C9.54086 12.1959 9.33807 12.0136 9.19004 11.7866C9.04202 11.5596 8.95398 11.2959 8.9348 11.0222C8.91562 10.7484 8.96598 10.4743 9.0808 10.2273Z" fill="#757575"/>
</svg>
