<svg width="40" height="51" viewBox="0 0 40 51" fill="none" xmlns="http://www.w3.org/2000/svg">
<path d="M20.0759 50.4387C16.5532 47.4339 13.2879 44.1397 10.3143 40.5907C5.85188 35.2609 0.552737 27.3233 0.552737 19.7595C0.550802 15.8966 1.69486 12.1199 3.84014 8.90749C5.98541 5.69504 9.03546 3.1912 12.6043 1.71285C16.1731 0.234502 20.1003 -0.151907 23.8888 0.602527C27.6773 1.35696 31.1569 3.21833 33.8871 5.95105C35.7049 7.76073 37.1457 9.91296 38.1261 12.2832C39.1066 14.6534 39.6072 17.1945 39.599 19.7595C39.599 27.3233 34.2999 35.2609 29.8375 40.5907C26.8638 44.1397 23.5986 47.4339 20.0759 50.4387ZM20.0759 11.3924C17.8568 11.3924 15.7286 12.274 14.1595 13.8431C12.5903 15.4122 11.7088 17.5404 11.7088 19.7595C11.7088 21.9786 12.5903 24.1068 14.1595 25.6759C15.7286 27.245 17.8568 28.1266 20.0759 28.1266C22.295 28.1266 24.4232 27.245 25.9923 25.6759C27.5614 24.1068 28.4429 21.9786 28.4429 19.7595C28.4429 17.5404 27.5614 15.4122 25.9923 13.8431C24.4232 12.274 22.295 11.3924 20.0759 11.3924Z" fill="#757575"/>
</svg>
